<svg xmlns="http://www.w3.org/2000/svg" xmlns:xlink="http://www.w3.org/1999/xlink" viewBox="0,0,256,256" width="48px" height="48px" fill-rule="nonzero"><g fill="#fff7f7" fill-rule="nonzero" stroke="none" stroke-width="1" stroke-linecap="butt" stroke-linejoin="miter" stroke-miterlimit="10" stroke-dasharray="" stroke-dashoffset="0" font-family="none" font-weight="none" font-size="none" text-anchor="none" style="mix-blend-mode: normal"><g transform="scale(5.33333,5.33333)"><path d="M23.00781,5c-11.40768,0 -21.00195,7.5508 -21.00195,17.23633c0,8.6379 7.60149,15.64823 17.5,16.99609c0.22775,0.04944 0.47155,0.12875 0.62695,0.19727c-0.01477,0.08546 0.02039,0.48163 -0.02734,0.84375v0.00195c-0.01285,0.07706 -0.22441,1.34001 -0.26953,1.60352l0.00195,-0.00195c-0.07512,0.43302 -0.3159,1.15659 0.35547,2.17188c0.33568,0.50764 1.09204,0.93876 1.76953,0.95117c0.67749,0.01241 1.24611,-0.21027 1.86914,-0.55273c4.54802,-2.50091 9.48935,-5.32298 13.38281,-8.86719c3.89346,-3.54421 6.79102,-7.94093 6.79102,-13.34375c-0.00005,-9.68519 -9.59036,-17.23633 -20.99805,-17.23633zM23.00781,8c10.09432,0 17.99805,6.56751 17.99805,14.23633c0,4.34218 -2.271,7.90296 -5.81055,11.125c-3.39409,3.08964 -7.90844,5.73188 -12.25195,8.13281c0.05754,-0.34449 0.12891,-0.77539 0.12891,-0.77539l0.00391,-0.02344l0.00391,-0.02344c0.07502,-0.56268 0.2849,-1.40688 -0.15625,-2.50977l-0.00195,-0.00195v-0.00195c-0.33359,-0.8248 -0.95125,-1.18332 -1.44531,-1.41992c-0.49406,-0.23661 -0.96163,-0.35831 -1.34961,-0.44141l-0.05859,-0.01172l-0.06055,-0.00781c-8.78831,-1.15625 -15.00195,-7.15378 -15.00195,-14.04102c0,-7.66847 7.90764,-14.23633 18.00195,-14.23633zM18.33398,17.13672c-0.564,0 -1.02344,0.45563 -1.02344,1.01563v7.69336c0,0.561 0.45844,1.01563 1.02344,1.01563c0.564,0 1.02344,-0.45563 1.02344,-1.01562v-7.69336c0,-0.56 -0.45844,-1.01562 -1.02344,-1.01562zM21.85352,17.13672c-0.11,0 -0.22017,0.01773 -0.32617,0.05273c-0.418,0.139 -0.69922,0.52589 -0.69922,0.96289v7.69336c0,0.561 0.46039,1.01563 1.02539,1.01563c0.566,0 1.02539,-0.45563 1.02539,-1.01562v-4.75781l3.97461,5.36719c0.192,0.254 0.49836,0.40625 0.81836,0.40625c0.109,0 0.21822,-0.01773 0.32422,-0.05273c0.42,-0.137 0.70117,-0.52389 0.70117,-0.96289v-7.69531c0,-0.56 -0.45844,-1.01367 -1.02344,-1.01367c-0.565,0 -1.02539,0.45367 -1.02539,1.01367v4.76172l-3.97656,-5.36914c-0.192,-0.254 -0.49936,-0.40625 -0.81836,-0.40625zM11.4668,17.13867c-0.564,0 -1.02344,0.45367 -1.02344,1.01367v7.69531c0,0.561 0.45844,1.01563 1.02344,1.01563h3.87891c0.565,0 1.02248,-0.45758 1.02148,-1.01758c0,-0.56 -0.45648,-1.01562 -1.02148,-1.01562h-2.85742v-6.67773c0,-0.56 -0.45648,-1.01367 -1.02148,-1.01367zM31.0957,17.13867c-0.564,0 -1.02344,0.45563 -1.02344,1.01563v0.00195v3.8418v0.00195v0.00195v3.84375c0,0.561 0.46044,1.01563 1.02344,1.01563h3.87891c0.565,0 1.02539,-0.45563 1.02539,-1.01562c0,-0.56 -0.46039,-1.01562 -1.02539,-1.01562h-2.85547v-1.81641h2.85547c0.566,0 1.02539,-0.45563 1.02539,-1.01562c0,-0.561 -0.46039,-1.01562 -1.02539,-1.01562v0.00391h-2.85547v-1.81641h2.85547c0.566,0 1.02539,-0.45563 1.02539,-1.01562c0,-0.56 -0.46039,-1.01562 -1.02539,-1.01562z"></path></g></g></svg>