<?xml version="1.0" encoding="UTF-8" standalone="no"?>
<!DOCTYPE svg PUBLIC "-//W3C//DTD SVG 1.1//EN" "http://www.w3.org/Graphics/SVG/1.1/DTD/svg11.dtd">
<svg width="100%" height="100%" viewBox="0 0 1786 359" version="1.1" xmlns="http://www.w3.org/2000/svg" xmlns:xlink="http://www.w3.org/1999/xlink" xml:space="preserve" xmlns:serif="http://www.serif.com/" style="fill-rule:evenodd;clip-rule:evenodd;stroke-linejoin:round;stroke-miterlimit:2;">
    <g transform="matrix(1,0,0,1,-325.653,-1723.07)">
        <g transform="matrix(4.16667,0,0,4.16667,0,0)">
            <g id="レイヤー-1" serif:id="レイヤー 1">
                <g transform="matrix(0,-1,-1,0,101.346,413.537)">
                    <path d="M-10.98,-10.979C-17.043,-10.979 -21.959,-6.063 -21.959,0.001C-21.959,6.065 -17.043,10.98 -10.98,10.98C-4.917,10.98 -0,6.065 -0,0.001C-0,-6.063 -4.917,-10.979 -10.98,-10.979" style="fill:rgb(188,190,191);fill-rule:nonzero;"/>
                </g>
                <g transform="matrix(1,0,0,1,125.858,436.924)">
                    <path d="M0,-22.608L4.236,-20.36C4.236,-20.36 2.183,-12.773 -5.793,-4.733C-5.857,-4.539 15.476,-4.733 15.476,-4.733L15.476,0L-17.724,0C-17.724,0 -6.657,-8.515 0,-22.608" style="fill:rgb(188,190,191);fill-rule:nonzero;"/>
                </g>
                <g transform="matrix(1,0,0,1,80.6416,437.118)">
                    <path d="M0,-9.078C0,-9.078 3.566,-5.446 10.504,-5.187C10.504,-5.187 13.422,-1.427 14.589,-1.102C14.589,-1.102 7.846,0 2.918,-1.945C-1.086,-3.525 -2.691,-5.13 -2.464,-5.316L0,-9.078Z" style="fill:rgb(188,190,191);fill-rule:nonzero;"/>
                </g>
                <g transform="matrix(1,0,0,1,99.1216,459.943)">
                    <path d="M0,-20.685L6.484,-14.784C6.484,-14.784 0.908,-1.102 -13.098,0L-19.971,-11.153C-19.971,-11.153 -14.395,-11.347 -8.235,-14.459C-2.075,-17.573 0,-20.685 0,-20.685" style="fill:rgb(188,190,191);fill-rule:nonzero;"/>
                </g>
                <g transform="matrix(-0.708727,-0.705483,-0.705483,0.708727,79.6689,466.011)">
                    <path d="M-4.42,-19.916C-4.42,-19.916 -13.3,-13.11 -9.095,0.957L-4.42,0.12C-4.42,0.12 -6.689,-9.182 -2.619,-14.189L-4.42,-19.916Z" style="fill:rgb(188,190,191);fill-rule:nonzero;"/>
                </g>
                <g transform="matrix(1,0,0,1,111.441,499.496)">
                    <path d="M0,-59.2L5.058,-59.2C5.058,-59.2 2.693,-34.499 2.334,-30.475C1.492,-21.009 9.043,-14.611 12.19,-13.097C15.563,-11.476 29.957,-5.706 29.957,-5.706L29.957,0C29.957,0 15.578,-5.922 10.894,-8.17C6.031,-10.504 -4.149,-17.637 -3.112,-29.373C-2.075,-41.109 0,-59.2 0,-59.2" style="fill:rgb(188,190,191);fill-rule:nonzero;"/>
                </g>
                <g transform="matrix(0.983282,-0.182087,-0.182087,-0.983282,114.329,448.472)">
                    <path d="M1.016,1.401L18.82,1.401L13.98,-14.057L-2.545,-11.063L1.016,1.401Z" style="fill:rgb(188,190,191);fill-rule:nonzero;"/>
                </g>
                <g transform="matrix(0,-1,-1,0,155.295,415.613)">
                    <path d="M-10.98,-10.979C-17.043,-10.979 -21.959,-6.063 -21.959,0C-21.959,6.065 -17.043,10.98 -10.98,10.98C-4.916,10.98 0,6.065 0,0C0,-6.063 -4.916,-10.979 -10.98,-10.979" style="fill:rgb(188,190,191);fill-rule:nonzero;"/>
                </g>
                <g transform="matrix(-1,0,0,1,354.771,50.605)">
                    <rect x="153.783" y="393.424" width="47.205" height="4.437" style="fill:rgb(188,190,191);"/>
                </g>
                <g transform="matrix(-1,0,0,1,369.715,25.705)">
                    <rect x="168.727" y="405.874" width="32.261" height="4.437" style="fill:rgb(188,190,191);"/>
                </g>
                <g transform="matrix(0.988907,0.148535,0.148535,-0.988907,169.644,435.885)">
                    <path d="M1.001,0.018C4.88,8.249 5.407,13.072 5.407,13.072L1.001,13.591C1.001,13.591 -0.003,7.907 -4.476,-0.804L1.001,0.018Z" style="fill:rgb(188,190,191);fill-rule:nonzero;"/>
                </g>
                <g transform="matrix(1,0,0,1,164.056,461.305)">
                    <path d="M0,-23.873C-1.284,-22.163 -2.723,-20.363 -4.372,-18.48C-13.065,-8.554 -21.555,-3.048 -21.555,-3.048L-17.859,0C-17.859,0 -11.202,-3.751 -0.546,-16.017C1.924,-18.86 3.937,-21.485 5.608,-23.873L0,-23.873Z" style="fill:rgb(188,190,191);fill-rule:nonzero;"/>
                </g>
                <g transform="matrix(0.913041,0.407868,0.407868,-0.913041,192.659,418.156)">
                    <path d="M-3.809,1.179L0.641,1.179C0.641,1.179 1.738,-7.423 -3.038,-16.657L-9.238,-19.522C-9.238,-19.522 -3.737,-8.732 -3.809,1.179" style="fill:rgb(188,190,191);fill-rule:nonzero;"/>
                </g>
                <g transform="matrix(1,0,0,1,178.659,498.345)">
                    <path d="M0,-50.305C0.519,-48.129 3.97,-33.375 11.004,-23.078C19.39,-10.801 29.938,-5.701 29.938,-5.701L29.938,0.438C29.938,0.438 13.684,-8.813 8.064,-18.669C1.968,-29.361 -1.1,-32.675 -5.163,-50.743C-5.163,-50.743 -0.042,-50.479 0,-50.305" style="fill:rgb(188,190,191);fill-rule:nonzero;"/>
                </g>
                <g transform="matrix(1,0,0,1,157.415,491.694)">
                    <path d="M0,-37.436L8.732,-37.176C8.732,-37.176 13.919,-37.695 14.006,-32.853C14.092,-28.012 11.326,-12.709 11.326,-12.709C11.326,-12.709 7.262,-13.314 5.447,-13.661C3.631,-14.006 3.285,-13.661 3.458,-12.795C3.631,-11.931 4.702,-9.415 7.089,-8.819C9.856,-8.127 22.911,-4.496 22.911,-4.496C22.998,-4.064 22.219,0.259 22.219,0.259C22.219,0.259 7.262,-3.458 4.063,-4.841C0.865,-6.225 -1.815,-8.386 -1.556,-13.228C-1.297,-18.07 -1.038,-18.847 -1.038,-18.847L7.262,-18.156L7.521,-23.17L-0.086,-23.862L0,-37.436Z" style="fill:rgb(188,190,191);fill-rule:nonzero;"/>
                </g>
                <g transform="matrix(0,-1,-1,0,266.046,431.001)">
                    <path d="M-5.188,-5.188C-8.053,-5.188 -10.375,-2.866 -10.375,-0.001C-10.375,2.865 -8.053,5.188 -5.188,5.188C-2.324,5.188 -0.001,2.865 -0.001,-0.001C-0.001,-2.866 -2.324,-5.188 -5.188,-5.188" style="fill:rgb(188,190,191);fill-rule:nonzero;"/>
                </g>
                <g transform="matrix(0,-1,-1,0,275.513,431.001)">
                    <path d="M-5.188,-5.188C-8.053,-5.188 -10.375,-2.866 -10.375,-0.001C-10.375,2.865 -8.053,5.188 -5.188,5.188C-2.324,5.188 -0.001,2.865 -0.001,-0.001C-0.001,-2.866 -2.324,-5.188 -5.188,-5.188" style="fill:rgb(188,190,191);fill-rule:nonzero;"/>
                </g>
                <g transform="matrix(0,-1,-1,0,396.897,433.595)">
                    <path d="M-5.188,-5.188C-8.053,-5.188 -10.375,-2.866 -10.375,-0.001C-10.375,2.866 -8.053,5.188 -5.188,5.188C-2.324,5.188 -0.001,2.866 -0.001,-0.001C-0.001,-2.866 -2.324,-5.188 -5.188,-5.188" style="fill:rgb(188,190,191);fill-rule:nonzero;"/>
                </g>
                <g transform="matrix(0,-1,-1,0,406.364,433.595)">
                    <path d="M-5.188,-5.188C-8.053,-5.188 -10.375,-2.866 -10.375,-0.001C-10.375,2.865 -8.053,5.188 -5.188,5.188C-2.324,5.188 -0.001,2.865 -0.001,-0.001C-0.001,-2.866 -2.324,-5.188 -5.188,-5.188" style="fill:rgb(188,190,191);fill-rule:nonzero;"/>
                </g>
                <g transform="matrix(0,-1,-1,0,455.461,460.33)">
                    <path d="M-4.961,-4.962C-7.701,-4.962 -9.923,-2.741 -9.923,-0.001C-9.923,2.739 -7.701,4.961 -4.961,4.961C-2.221,4.961 0,2.739 0,-0.001C0,-2.741 -2.221,-4.962 -4.961,-4.962" style="fill:rgb(188,190,191);fill-rule:nonzero;"/>
                </g>
                <g transform="matrix(0,-1,-1,0,464.515,460.33)">
                    <path d="M-4.961,-4.962C-7.701,-4.962 -9.923,-2.74 -9.923,0C-9.923,2.739 -7.701,4.961 -4.961,4.961C-2.221,4.961 0,2.739 0,0C0,-2.74 -2.221,-4.962 -4.961,-4.962" style="fill:rgb(188,190,191);fill-rule:nonzero;"/>
                </g>
                <g transform="matrix(1,0,0,1,258.784,489.014)">
                    <path d="M0,-52.825C0,-53.492 0.098,-54.136 0.266,-54.75L-32.118,-55.592L-33.804,-47.81L-1.383,-47.81L-12.018,-5.014L-44.827,-5.014L-46.513,2.767L-16.297,2.767C-8.516,2.767 -6.311,0.562 -4.755,-3.718C-3.63,-6.812 2.445,-32.012 5.723,-45.729C2.452,-46.435 0,-49.343 0,-52.825" style="fill:rgb(188,190,191);fill-rule:nonzero;"/>
                </g>
                <g transform="matrix(1,0,0,1,273.741,491.521)">
                    <path d="M0,-45.26L7.132,-45.26C7.132,-45.26 0.994,-19.625 -0.303,-15.216C-1.6,-10.807 -5.187,-1.556 -19.323,0L-16.989,-9.337C-16.989,-9.337 -8.948,-10.504 -7.262,-17.248C-5.577,-23.991 0,-45.26 0,-45.26" style="fill:rgb(188,190,191);fill-rule:nonzero;"/>
                </g>
                <g transform="matrix(1,0,0,1,367.459,493.769)">
                    <path d="M0,-60.13L7.133,-60.13C7.133,-60.13 -2.637,-19.452 -3.934,-15.043C-5.23,-10.634 -10.85,0 -24.855,-0.692L-23.127,-8.818C-23.127,-8.818 -13.789,-8.127 -10.85,-16.773C-8.612,-23.354 0,-60.13 0,-60.13" style="fill:rgb(188,190,191);fill-rule:nonzero;"/>
                </g>
                <g transform="matrix(1,0,0,1,287.747,493.336)">
                    <path d="M0,-61.211L7.521,-61.211L-5.706,-8.3C-5.706,-8.3 -0.013,-8.279 5.576,-11.023C12.709,-14.524 13.228,-23.213 13.228,-23.213L20.879,-23.213C20.879,-23.213 17.664,-4.176 1.815,-1.815C-10.375,0 -14.654,-1.297 -14.654,-1.297L0,-61.211Z" style="fill:rgb(188,190,191);fill-rule:nonzero;"/>
                </g>
                <g transform="matrix(1,0,0,1,313.035,492.386)">
                    <path d="M0,-57.062L34.409,-55.678L37.003,-51.183C37.003,-51.183 29.914,-19.713 28.012,-14.526C26.11,-9.338 19.021,-0.174 8.646,-0.174C-1.729,-0.174 -10.375,0 -10.375,0L-8.3,-7.09C-8.3,-7.09 -0.864,-6.917 4.15,-6.917C9.164,-6.917 20.23,-8.127 23.344,-20.923C26.456,-33.719 30.087,-49.108 30.087,-49.108L-0.864,-49.972L0,-57.062Z" style="fill:rgb(188,190,191);fill-rule:nonzero;"/>
                </g>
                <g transform="matrix(1,0,0,1,506.783,493.769)">
                    <path d="M0,-49.453C0,-49.453 -5.5,-25.162 -9.251,-16.254C-12.018,-9.682 -24.467,0 -34.842,0L-52.998,0L-50.923,-7.09C-50.923,-7.09 -39.676,-6.984 -34.669,-7.263C-28.444,-7.608 -18.894,-10.776 -14.957,-23.343C-10.461,-37.694 -7.521,-49.453 -7.521,-49.453L0,-49.453Z" style="fill:rgb(188,190,191);fill-rule:nonzero;"/>
                </g>
                <g transform="matrix(1,0,0,1,390.406,496.112)">
                    <path d="M0,-55.522L-35.354,-56.464L-36.218,-49.376L-0.771,-48.857C-0.771,-48.857 -5.188,-30.292 -8.552,-17.559C-10.973,-8.395 -20.483,-10.297 -25.843,-10.816L-27.054,-3.9C-27.054,-3.9 -7.515,0.942 -2.846,-13.755C-1.271,-18.713 5.308,-47.285 6.071,-50.607C3.161,-50.787 0.755,-52.807 0,-55.522" style="fill:rgb(188,190,191);fill-rule:nonzero;"/>
                </g>
                <g transform="matrix(-1,0,0,1,395.991,464.547)">
                    <path d="M-22.908,7.262L2.206,7.262L-0,0L-25.114,0L-22.908,7.262Z" style="fill:rgb(188,190,191);fill-rule:nonzero;"/>
                </g>
                <g transform="matrix(-1,0,0,1,428.672,436.535)">
                    <path d="M-31.943,7.262L2.206,7.262L0,0L-34.149,0L-31.943,7.262Z" style="fill:rgb(188,190,191);fill-rule:nonzero;"/>
                </g>
                <g transform="matrix(-1,0,0,1,423.376,450.8)">
                    <path d="M-36.721,7.263L2.206,7.263L0.001,0L-38.927,0L-36.721,7.263Z" style="fill:rgb(188,190,191);fill-rule:nonzero;"/>
                </g>
                <g transform="matrix(1,0,0,1,443.584,464.374)">
                    <path d="M0,18.328C1.91,13.143 6.916,-10.894 6.916,-10.894L0,-10.202C0,-10.202 -2.014,-0.968 -4.669,11.931C-5.879,17.809 -8.127,20.922 -14.179,21.613C-20.23,22.305 -26.283,21.613 -26.283,21.613L-28.012,29.049C-28.012,29.049 -19.885,29.222 -13.487,29.222C-7.09,29.222 -2.421,24.898 0,18.328" style="fill:rgb(188,190,191);fill-rule:nonzero;"/>
                </g>
                <g transform="matrix(-0.525919,0.850535,0.850535,0.525919,490.298,438.897)">
                    <path d="M11.459,-20.393C11.459,-20.393 3.114,-6.239 3.749,3.912L11.459,6.238C11.459,6.238 10.949,-4.445 18.342,-18.372C15.828,-18.911 11.459,-20.393 11.459,-20.393" style="fill:rgb(188,190,191);fill-rule:nonzero;"/>
                </g>
            </g>
        </g>
    </g>
</svg>
